<svg width="80" height="80" viewBox="0 0 80 80" fill="none" xmlns="http://www.w3.org/2000/svg">
  <rect x="10" y="10" width="60" height="60" rx="4" fill="#F5F5F5" stroke="#CCCCCC" stroke-width="2"/>
  <rect x="20" y="20" width="40" height="40" rx="20" fill="white" stroke="#CCCCCC" stroke-width="2"/>
  <circle cx="40" cy="40" r="15" fill="#F5F5F5" stroke="#CCCCCC" stroke-width="2"/>
  <rect x="20" y="15" width="8" height="3" rx="1" fill="#CCCCCC"/>
  <rect x="32" y="15" width="8" height="3" rx="1" fill="#CCCCCC"/>
  <path d="M35 30C38.3137 30 40 31.6863 40 35C40 38.3137 38.3137 45 35 45C31.6863 45 30 38.3137 30 35C30 31.6863 31.6863 30 35 30Z" fill="#CCCCCC"/>
  <path d="M45 30C48.3137 30 50 31.6863 50 35C50 38.3137 48.3137 45 45 45C41.6863 45 40 38.3137 40 35C40 31.6863 41.6863 30 45 30Z" fill="#CCCCCC"/>
</svg>
